<svg width="98" height="389" viewBox="0 0 98 389" fill="none" xmlns="http://www.w3.org/2000/svg">
<path fill-rule="evenodd" clip-rule="evenodd" d="M-291 0C-237.29 0 -193.75 43.5402 -193.75 97.25C-247.46 97.25 -291 53.7098 -291 0ZM-96.5 0C-150.21 0 -193.75 43.5402 -193.75 97.25C-247.46 97.25 -291 140.79 -291 194.5C-291 248.209 -247.46 291.75 -193.75 291.75C-247.46 291.75 -291 335.291 -291 389C-237.29 389 -193.75 345.459 -193.75 291.75C-193.75 345.459 -150.21 389 -96.5 389C-42.7908 389 0.75 345.459 0.75 291.75C0.75 345.459 44.2908 389 98 389C98 335.291 54.4592 291.75 0.75 291.75C54.4592 291.75 98 248.209 98 194.5C98 140.79 54.4592 97.25 0.75 97.25C54.4592 97.25 98 53.7098 98 0C44.2908 0 0.75 43.5402 0.75 97.25C0.75 43.5402 -42.7908 0 -96.5 0ZM0.75 291.75C0.75 238.041 -42.7908 194.5 -96.5 194.5C-96.5 248.209 -52.9592 291.75 0.75 291.75ZM-96.5 194.5C-42.7908 194.5 0.75 150.96 0.75 97.25C0.75 150.96 44.2908 194.5 98 194.5C44.2908 194.5 0.75 238.041 0.75 291.75C-52.9592 291.75 -96.5 335.291 -96.5 389C-96.5 335.291 -140.04 291.75 -193.75 291.75C-140.04 291.75 -96.5 248.209 -96.5 194.5ZM-96.5 194.5C-150.21 194.5 -193.75 238.041 -193.75 291.75C-193.75 238.041 -237.29 194.5 -291 194.5C-237.29 194.5 -193.75 150.96 -193.75 97.25C-193.75 150.96 -150.21 194.5 -96.5 194.5ZM-96.5 194.5C-96.5 140.79 -52.9592 97.25 0.75 97.25C-52.9592 97.25 -96.5 53.7098 -96.5 0C-96.5 53.7098 -140.04 97.25 -193.75 97.25C-140.04 97.25 -96.5 140.79 -96.5 194.5Z" fill="#CB75BD"/>
</svg>
