<svg width="458" height="458" viewBox="0 0 458 458" fill="none" xmlns="http://www.w3.org/2000/svg">
<path fill-rule="evenodd" clip-rule="evenodd" d="M274.8 32.7143C274.8 14.6467 260.153 0 242.085 0H215.914C197.847 0 183.2 14.6467 183.2 32.7143V39.4496C183.2 68.5949 147.962 83.1909 127.353 62.582L122.591 57.8195C109.815 45.0438 89.1014 45.0438 76.3255 57.8195L57.8195 76.3255C45.0438 89.1012 45.0438 109.815 57.8195 122.591L62.5823 127.353C83.1911 147.962 68.5951 183.2 39.4498 183.2H32.7143C14.6467 183.2 0 197.847 0 215.914V242.085C0 260.153 14.6467 274.8 32.7143 274.8H39.4496C68.5951 274.8 83.1911 310.039 62.5823 330.646L57.8195 335.409C45.0438 348.185 45.0438 368.898 57.8195 381.674L76.3255 400.18C89.1014 412.956 109.815 412.956 122.591 400.18L127.353 395.417C147.962 374.809 183.2 389.405 183.2 418.55V425.285C183.2 443.353 197.847 458 215.914 458H242.085C260.153 458 274.8 443.353 274.8 425.285V418.55C274.8 389.405 310.039 374.809 330.646 395.417L335.409 400.18C348.185 412.956 368.898 412.956 381.674 400.18L400.18 381.674C412.956 368.898 412.956 348.185 400.18 335.409L395.419 330.646C374.809 310.039 389.405 274.8 418.55 274.8H425.285C443.353 274.8 458 260.153 458 242.085V215.914C458 197.847 443.353 183.2 425.285 183.2H418.55C389.405 183.2 374.809 147.962 395.417 127.353L400.18 122.59C412.956 109.815 412.956 89.1012 400.18 76.3255L381.674 57.8195C368.898 45.0436 348.185 45.0436 335.409 57.8195L330.646 62.582C310.039 83.1909 274.8 68.5949 274.8 39.4496V32.7143Z" fill="#CB75BD"/>
</svg>
