<svg xmlns="http://www.w3.org/2000/svg">
    <symbol id="sms" viewBox="0 0 24 24" fill="none">
        <path d="M12 20.5H7C4 20.5 2 19 2 15.5V8.5C2 5 4 3.5 7 3.5H17C20 3.5 22 5 22 8.5V11.5" stroke="currentcolor" stroke-width="1.5" stroke-miterlimit="10" stroke-linecap="round" stroke-linejoin="round"/>
        <path d="M17 9L13.87 11.5C12.84 12.32 11.15 12.32 10.12 11.5L7 9" stroke="currentcolor" stroke-width="1.5" stroke-miterlimit="10" stroke-linecap="round" stroke-linejoin="round"/>
        <path d="M19.21 14.77L15.6701 18.31C15.5301 18.45 15.4 18.71 15.37 18.9L15.18 20.25C15.11 20.74 15.45 21.0801 15.94 21.0101L17.29 20.82C17.48 20.79 17.75 20.66 17.88 20.52L21.4201 16.9801C22.0301 16.3701 22.3201 15.6601 21.4201 14.7601C20.5301 13.8701 19.82 14.16 19.21 14.77Z" stroke="currentcolor" stroke-width="1.5" stroke-miterlimit="10" stroke-linecap="round" stroke-linejoin="round"/>
        <path d="M18.7001 15.28C19.0001 16.36 19.8401 17.2 20.9201 17.5" stroke="currentcolor" stroke-width="1.5" stroke-miterlimit="10" stroke-linecap="round" stroke-linejoin="round"/>
    </symbol>
    <symbol id="indicator" viewBox="0 0 30 29" fill="none">
        <path d="M15.2008 2.40005C8.57681 2.40005 3.20081 7.77606 3.20081 14.4001C3.20081 21.0241 8.57681 26.4001 15.2008 26.4001C21.8248 26.4001 27.2008 21.0241 27.2008 14.4001" stroke="currentcolor" stroke-width="1.5" stroke-miterlimit="10" stroke-linecap="round" stroke-linejoin="round"/>
        <path d="M16.4008 13.2L26.2408 3.36005" stroke="currentcolor" stroke-width="1.5" stroke-linecap="round" stroke-linejoin="round"/>
        <path d="M27.2008 8.19606V2.40005H21.4048" stroke="currentcolor" stroke-width="1.5" stroke-linecap="round" stroke-linejoin="round"/>
    </symbol>
    <symbol id="icon-arrowdown" viewBox="0 0 24 24" fill="none" >
        <path d="M5.70711 9.71069C5.31658 10.1012 5.31658 10.7344 5.70711 11.1249L10.5993 16.0123C11.3805 16.7927 12.6463 16.7924 13.4271 16.0117L18.3174 11.1213C18.708 10.7308 18.708 10.0976 18.3174 9.70708C17.9269 9.31655 17.2937 9.31655 16.9032 9.70708L12.7176 13.8927C12.3271 14.2833 11.6939 14.2832 11.3034 13.8927L7.12132 9.71069C6.7308 9.32016 6.09763 9.32016 5.70711 9.71069Z" fill="currentcolor"></path>
    </symbol>
</svg>